<?xml version="1.0" standalone="no"?>
<!DOCTYPE svg PUBLIC "-//W3C//DTD SVG 20010904//EN"
 "http://www.w3.org/TR/2001/REC-SVG-20010904/DTD/svg10.dtd">
<svg version="1.0" xmlns="http://www.w3.org/2000/svg"
 width="700.000000pt" height="700.000000pt" viewBox="0 0 700.000000 700.000000"
 preserveAspectRatio="xMidYMid meet">
<metadata>
Created by potrace 1.14, written by Peter Selinger 2001-2017
</metadata>
<g transform="translate(0.000000,700.000000) scale(0.100000,-0.100000)"
fill="#000000" stroke="none">
<path d="M6540 6665 c-30 -7 -140 -48 -245 -92 -198 -84 -230 -98 -280 -118
-16 -7 -205 -86 -420 -175 -214 -89 -401 -167 -415 -173 -27 -11 -27 -11 -85
-24 -39 -10 -110 -9 -150 1 -11 2 -65 21 -120 41 -55 20 -107 38 -116 40 -9 2
-38 11 -64 19 -59 21 -258 72 -305 80 -44 7 -77 14 -98 20 -9 3 -42 8 -72 11
-30 4 -57 8 -60 10 -3 1 -30 6 -61 9 -31 4 -66 9 -78 11 -135 26 -783 27 -917
1 -10 -2 -50 -7 -89 -12 -38 -4 -72 -8 -75 -9 -3 -1 -25 -5 -50 -9 -215 -36
-420 -89 -635 -163 -71 -24 -139 -47 -150 -49 -41 -11 -112 -10 -160 1 -40 9
-718 276 -840 330 -93 41 -491 201 -555 222 -188 63 -378 -18 -464 -197 l-31
-65 0 -1615 c0 -888 3 -1645 7 -1682 10 -86 17 -134 25 -178 4 -19 8 -42 9
-50 15 -110 96 -383 160 -539 348 -847 1167 -1538 2169 -1829 126 -37 179 -50
285 -72 121 -25 112 -24 258 -46 20 -3 44 -7 52 -9 8 -2 51 -7 95 -11 44 -3
112 -9 152 -13 135 -13 540 -5 703 14 19 3 58 7 85 10 182 21 481 86 670 145
55 18 105 33 110 34 6 2 23 8 38 14 16 7 31 12 35 12 16 0 295 121 399 173
398 198 766 483 1052 812 267 307 498 743 592 1115 25 102 59 258 63 295 13
107 18 142 23 170 4 17 8 741 10 1610 3 1161 1 1596 -7 1640 -39 204 -243 335
-450 290z m-4255 -3269 c214 -17 416 -181 484 -393 96 -302 -67 -615 -379
-725 -72 -25 -210 -31 -292 -12 -171 40 -339 177 -403 330 -41 98 -58 239 -41
333 45 236 231 420 471 465 39 7 75 12 80 10 6 -1 42 -5 80 -8z m2565 0 c227
-21 435 -209 490 -445 18 -77 14 -189 -9 -275 -69 -253 -315 -435 -569 -421
-111 5 -138 12 -229 56 -293 140 -412 485 -269 774 85 170 258 291 451 314 33
4 65 6 70 5 6 -2 35 -5 65 -8z"/>
</g>
</svg>
